# Blender 5.1.1
# www.blender.org
mtllib tree.mtl
o tree_door
v -1.591585 -0.237862 -0.712686
v 1.452335 -0.285355 -0.732951
v -1.660262 -0.475648 -4.730808
v 2.328086 -0.369608 -4.784441
v -3.116503 -0.239219 -3.355787
v 3.712192 -0.295826 -3.521197
v -0.057729 -0.646278 -5.980334
v 0.546752 2.015611 -0.899119
v -0.897887 0.610132 -0.575209
v 0.761059 0.543762 -0.558096
v -1.520684 0.359466 -4.528780
v 2.088559 0.453188 -4.644523
v -2.747972 -0.225001 -0.862942
v 2.876493 -0.344453 -1.660904
v -0.061646 0.221257 -5.632245
v -0.706905 1.708887 -0.807674
v -0.803638 1.167846 -0.707811
v 0.674134 1.135592 -0.622205
v -1.400367 1.092474 -4.227177
v 1.701698 1.137996 -4.413754
v -1.995066 1.222221 -2.884805
v 2.388951 1.178410 -2.806904
v -0.064968 0.992394 -5.185500
v -1.219240 2.582210 -3.887844
v 0.626084 1.718470 -0.804684
v -1.326638 1.736102 -3.984498
v 1.421128 1.732149 -4.108287
v -1.844112 1.820470 -2.487643
v 1.980237 1.748980 -2.712392
v -0.068459 1.667846 -4.807171
v -0.556101 2.004050 -0.876271
v 1.206410 2.556692 -3.906615
v -1.704291 2.600264 -2.492715
v -0.050315 2.149300 -0.881569
v 1.725891 2.526101 -2.668063
v -0.032378 2.554086 -4.555945
v -0.768917 3.548933 -3.764154
v -0.775288 3.513612 -1.482648
v 1.273559 3.535493 -3.877434
v -1.183343 3.534235 -2.622859
v 1.712743 3.470617 -2.740626
v 0.238516 3.564534 -4.299790
v 1.235866 4.696980 -1.090813
v -0.303876 4.941602 -3.476411
v -0.286954 4.929682 -1.419247
v 1.312196 4.836585 -3.702063
v -0.637059 4.960108 -2.404456
v 1.004656 4.877578 -0.934887
v 1.752062 4.712871 -2.717612
v 0.483439 4.901636 -3.995412
v -0.081849 1.145589 -0.712124
v -0.905707 2.598710 -1.031291
v -0.039081 2.663356 -0.841425
v -1.494027 0.569529 -0.815429
v 1.330960 0.531527 -0.705323
v -0.954703 0.035028 -0.503801
v 0.833423 -0.042714 -0.554397
v 1.193312 1.844498 -0.963771
v 1.220342 1.201999 -0.745916
v -1.303605 1.229053 -0.834794
v 1.198779 2.626428 -1.238991
v -1.123063 1.831164 -0.869962
v -0.042123 -0.169915 -0.692633
v -0.692047 2.266732 -0.719377
v -0.053401 2.431833 -0.769908
v -1.224003 -0.178695 -0.320340
v -1.153208 0.527699 -0.384383
v 0.950875 0.435975 -0.455210
v 1.039549 -0.263670 -0.493237
v 0.836263 1.856662 -0.667520
v 0.860186 1.143077 -0.472762
v -1.000212 1.193273 -0.492707
v 0.771863 2.303357 -0.774163
v -0.845691 1.831501 -0.608109
v -0.592855 2.095951 -0.790845
v -1.055568 -0.048143 -0.390282
v 0.826629 0.491122 -0.492746
v 0.690002 1.773033 -0.721516
v -0.051665 2.245631 -0.843572
v -0.990143 0.572461 -0.457090
v 0.906949 -0.134630 -0.507369
v 0.735631 1.136332 -0.533604
v -0.871927 1.178975 -0.582547
v 0.616533 2.114653 -0.819765
v -0.747331 1.756756 -0.699267
v 1.321351 5.938278 -3.358563
v 1.395427 5.783962 -1.667001
v -0.182280 6.314827 -1.328004
v 1.709844 5.407843 -2.594661
v 0.542684 6.469061 -3.515186
v 0.583135 6.412298 -1.107497
v -0.539727 6.085646 -2.086868
v -0.242202 6.292245 -2.979423
v 1.452590 6.694685 -1.741328
v -1.073157 7.477116 -3.076474
v -0.357247 7.238176 -1.473414
v 1.515650 7.003666 -3.453329
v -1.182330 6.996367 -2.085509
v 0.148469 8.000997 -1.614102
v 1.981030 5.970312 -2.507045
v -0.018579 8.024328 -3.752559
v 1.746963 7.511319 -2.096111
v 1.973601 7.613718 -3.532693
v 1.067120 7.976823 -2.378502
v 2.486374 6.871714 -2.492124
v 1.090929 8.358415 -3.704372
v 3.587078 8.729419 -1.907463
v 3.916386 8.869791 -2.732900
v 3.379121 9.096102 -2.308131
v 3.956237 8.523595 -2.164564
v 3.500795 9.409499 -2.955118
v 4.567512 11.433578 -0.473707
v 4.913455 11.619716 -0.974933
v 4.291930 11.640165 -0.708741
v 4.955598 11.402629 -0.631341
v 4.500584 11.769707 -1.040554
v 4.814309 13.153451 -0.068891
v -2.412216 8.471335 -3.376146
v -2.600958 8.534249 -2.260593
v -2.735035 8.193061 -2.706978
v -1.822057 8.928963 -2.240356
v -1.666857 8.881596 -3.290373
v -3.760529 10.166722 -4.791021
v -4.182195 10.179759 -4.015224
v -4.201826 9.767789 -4.338939
v -3.630799 10.550447 -3.755499
v -3.222006 10.534924 -4.491653
v -3.835962 11.931175 -5.540639
v -4.146746 11.929622 -5.175919
v -4.149882 11.701777 -5.406986
v -3.867652 12.220274 -5.017333
v -3.564696 12.224154 -5.363705
v -3.994775 13.745425 -5.849981
v 2.678564 7.903951 -2.097971
v 2.746900 8.566211 -2.474376
v 3.086220 7.500756 -2.418549
v 2.767406 8.884544 -3.231448
v 2.858683 8.006724 -3.238183
v 3.834728 10.054838 -1.632153
v 3.941238 10.325606 -2.116261
v 4.611163 10.288645 -1.837416
v 4.667142 9.985413 -1.401982
v 4.236444 10.086968 -1.175927
v -0.798143 8.420256 -2.104707
v -1.842857 8.032954 -1.908043
v -1.953045 7.606280 -2.337926
v -0.842092 8.454233 -3.635304
v -1.750489 7.964460 -3.209595
v -3.598807 9.209213 -3.045095
v -3.655069 8.849279 -3.414314
v -3.289167 9.172940 -3.948470
v -2.653082 9.547820 -3.673369
v -2.955391 9.588870 -2.802674
v -0.108530 7.823424 0.040067
v 0.202510 8.237252 -0.292809
v 1.287202 7.370168 -0.472813
v 0.595180 7.231369 -0.130756
v 1.021614 8.331776 -0.623815
v 1.465325 7.955453 -0.672456
v 0.070674 8.133687 0.527872
v 0.321468 8.507519 0.164358
v 1.205076 7.770878 0.363132
v 0.559014 7.627062 0.604653
v 1.001813 8.699965 0.357529
v 1.377099 8.308575 0.280022
v -0.438971 11.242128 2.466030
v -0.213970 11.518656 2.413566
v 0.368938 10.985041 2.752239
v -0.033965 10.875487 2.716573
v 0.174582 11.557982 2.529710
v 0.458191 11.300722 2.663141
v -0.930783 12.526216 2.871036
v -0.804820 12.778097 2.885659
v -0.380206 12.324816 3.209523
v -0.649752 12.265626 3.130049
v -0.543243 12.796486 3.005683
v -0.321537 12.575605 3.135298
v -1.544829 14.211589 3.368509
v 0.528020 8.289000 1.265447
v 1.117412 8.446944 1.064528
v 0.363128 9.241076 1.098687
v 0.032288 8.846692 1.297480
v 1.281666 8.922783 1.023719
v 0.925774 9.277038 1.045713
v 0.805743 10.087165 2.386018
v -0.100655 10.041080 2.082847
v 0.922657 10.433460 2.253854
v 0.652847 10.440148 2.018633
v 0.347591 9.586102 2.238198
v 0.181509 10.367501 1.968336
v -0.537327 8.510418 0.571348
v -0.406227 8.790003 0.485162
v -0.567869 8.816527 0.969688
v -0.494542 9.027348 0.911290
v -1.111001 9.182442 0.908748
v -1.041884 9.317389 0.869516
v -0.954690 9.181408 1.077327
v -0.906889 9.317968 1.041154
v -1.633601 9.817695 1.266778
v 0.689226 10.912905 3.074983
v 0.783084 11.102715 2.910439
v 0.737135 12.493026 3.876336
v 3.327100 9.909569 -2.878693
v 3.474631 10.044479 -3.105863
v 3.016900 9.841150 -3.000642
v 3.152417 9.999823 -3.295055
v 3.159451 10.883135 -3.556391
v 3.208200 10.959534 -3.705295
v 3.023070 10.798688 -3.575745
v 3.065406 10.879614 -3.746650
v 2.778665 11.997784 -4.052080
v 0.080671 9.573550 -2.915428
v -0.046390 9.579823 -4.538432
v 0.618893 9.557434 -3.369844
v 0.546813 9.559381 -4.210779
v -0.519169 9.583827 -3.277419
v -0.579456 9.585391 -4.086225
v -0.116927 10.883157 -3.909910
v -0.147942 11.127336 -5.168967
v 0.329141 10.879911 -4.209357
v 0.311953 11.000729 -4.844818
v -0.586842 10.996880 -4.252209
v -0.603742 11.121146 -4.879555
v -0.277199 12.757839 -4.589494
v -0.277858 12.861796 -5.239755
v -0.011547 12.781754 -4.764545
v -0.012036 12.832966 -5.101810
v -0.546555 12.777692 -4.774088
v -0.546491 12.831258 -5.073773
v -0.146740 14.383532 -4.688047
v 3.778579 0.114751 -3.357034
v 3.464722 0.551361 -2.610578
v 2.959717 0.070295 -1.796535
v 4.848644 -0.258384 -2.862797
v 4.078783 -0.277787 -1.756997
v 4.876118 0.040866 -2.775004
v 4.573061 0.375234 -2.282896
v 4.146627 0.019375 -1.807980
v 6.020139 -0.226571 -1.930447
v 5.425318 -0.230734 -1.380417
v 6.018008 -0.041738 -1.889331
v 5.769206 0.161297 -1.627006
v 5.469830 -0.047390 -1.391647
v 6.864327 -0.206865 -0.823843
v 6.535314 -0.209004 -0.599185
v 6.856747 -0.117647 -0.807925
v 6.713174 -0.028648 -0.697851
v 6.554908 -0.120518 -0.602201
v 7.223978 -0.142521 0.044169
v -2.964868 0.329242 -3.247486
v -3.128410 0.898537 -2.035269
v -2.690663 0.339086 -0.986558
v -4.918030 -0.226585 -2.207778
v -4.237227 -0.228788 -0.569651
v -4.808829 0.172696 -2.150668
v -4.709169 0.606394 -1.232371
v -4.219505 0.168732 -0.678129
v -6.279644 -0.199324 0.077667
v -5.739826 -0.200629 0.904253
v -6.223335 0.015634 0.070145
v -6.139162 0.246992 0.755874
v -5.732624 0.014435 0.827235
v -7.284978 -0.123025 2.245505
v 0.451796 8.890847 1.809203
v 0.285554 9.760648 1.586977
v 0.981415 9.200766 1.806584
v -0.022384 9.404608 1.738164
v 1.119977 9.618778 1.711346
v 0.803638 9.811280 1.590272
v 0.595107 6.860228 -0.643815
v 1.329396 7.057605 -1.098409
v -0.173623 7.528822 -0.730756
v 1.550570 7.716077 -1.369742
v 0.206501 8.082045 -0.956428
v 1.022141 8.111071 -1.477050
v -0.351023 3.543009 -4.394310
v -0.838780 3.567672 -4.117815
v 0.411368 3.519582 -0.891663
v 1.339288 3.460883 -1.436332
v 0.850329 4.969556 -1.105957
v 1.250260 4.585256 -1.481327
v 1.091092 -0.287399 0.412251
v 1.754197 -0.287399 0.409027
v 1.129183 -0.274671 -0.643787
v 1.819376 -0.319860 -0.760141
v 0.571385 2.416596 0.063436
v 1.171445 2.373194 0.090144
v 0.601393 2.365961 -0.965260
v 1.202465 2.304280 -1.055897
v 1.177497 0.865775 -0.684582
v 1.020968 1.558512 -0.824845
v 1.578099 1.593652 -0.927441
v 1.719615 0.843683 -0.843461
v 1.671707 0.862936 0.269443
v 1.529188 1.608321 0.132988
v 1.000901 1.554904 0.140112
v 1.155564 0.861277 0.273601
v 0.536950 2.463180 0.088621
v 1.203047 2.427902 0.119599
v 0.570135 2.418885 -0.992717
v 1.220773 2.389464 -1.131930
v 0.611546 2.895347 -1.140624
v 0.580150 2.862585 0.085856
v 1.248636 2.937254 0.129344
v 1.251806 2.834552 -1.131159
v 0.066083 2.554143 0.050832
v 0.146639 2.983789 -1.136762
v 1.078141 2.374360 -0.412342
v 1.671645 -0.350114 -0.150960
v 1.449261 1.565568 -0.338257
v 1.590136 0.796698 -0.235775
v 1.149154 2.816314 -0.416138
v 1.107879 2.423293 -0.410887
v 0.119318 2.905783 -0.458132
v 0.493093 2.832451 -0.445417
v 1.775487 -0.280285 -0.231067
v 1.776696 -0.325127 -0.055351
v 1.165710 2.378225 -0.472412
v 1.170501 2.406644 -0.342171
v 1.686111 0.840210 -0.151207
v 1.683373 0.866833 -0.317088
v 1.539093 1.636514 -0.398389
v 1.542784 1.619578 -0.264055
v 1.201211 2.458654 -0.341080
v 1.193832 2.421924 -0.472588
v 0.579156 2.904041 -0.367522
v 0.598152 2.904533 -0.501353
v 1.235568 2.861744 -0.478578
v 1.241805 2.913946 -0.338648
v 0.131940 2.983798 -0.517183
v -1.017285 -0.333217 0.388766
v -1.680414 -0.333217 0.385596
v -0.990632 -0.307025 -0.646940
v -1.660434 -0.347714 -0.757966
v -0.387947 2.510548 -0.006356
v -0.939228 2.430782 -0.027885
v -0.383525 2.455514 -0.959889
v -0.980533 2.422059 -1.069090
v -0.974322 0.850234 -0.691687
v -0.825379 1.620153 -0.826323
v -1.322393 1.610925 -0.952185
v -1.501082 0.827535 -0.854477
v -1.490438 0.834722 0.219984
v -1.283350 1.622170 0.039003
v -0.808414 1.612578 0.049880
v -0.975198 0.834450 0.224611
v -0.357409 2.560141 0.024823
v -0.965347 2.477659 0.001280
v -0.349662 2.504731 -0.985757
v -0.990453 2.508781 -1.137598
v -0.304772 2.983106 -1.140874
v -0.321613 2.978566 0.039830
v -0.966789 2.955219 0.025687
v -0.981204 2.976494 -1.127602
v 0.097697 2.526851 -0.983969
v 0.108342 2.930852 0.050862
v -0.836785 2.389651 -0.494273
v -1.571654 -0.390613 -0.165506
v -1.189727 1.565336 -0.412489
v -1.403250 0.770463 -0.276372
v -0.876185 2.899410 -0.483280
v -0.868070 2.440676 -0.493574
v -0.239037 2.917203 -0.466236
v -1.665738 -0.318764 -0.242603
v -1.686590 -0.367657 -0.073161
v -0.927182 2.404585 -0.545688
v -0.926137 2.406379 -0.434929
v -1.499465 0.813491 -0.196350
v -1.485209 0.843294 -0.354214
v -1.276033 1.636456 -0.465221
v -1.283189 1.621624 -0.346680
v -0.955330 2.459836 -0.432624
v -0.957741 2.454139 -0.542844
v -0.305619 3.007280 -0.396145
v -0.316178 2.994980 -0.525077
v -0.962974 2.972728 -0.531170
v -0.964145 2.976444 -0.413105
v 0.125066 2.982220 -0.386081
vn -0.7482 0.2944 -0.5945
vn -0.0182 0.1746 -0.9845
vn -0.0837 0.4011 -0.9122
vn 0.6363 0.4546 -0.6232
vn 0.7122 0.1690 -0.6814
vn -0.7851 0.2594 0.5625
vn -0.9426 0.3284 0.0607
vn -0.9708 0.2231 0.0887
vn 0.5281 0.4722 -0.7058
vn -0.1030 0.4895 -0.8659
vn 0.5646 0.5470 -0.6181
vn -0.6233 0.3937 0.6756
vn -0.2346 0.9717 0.0258
vn -0.0282 0.6262 0.7791
vn 0.7210 0.6913 0.0467
vn 0.4960 0.5900 -0.6371
vn -0.6128 0.3870 -0.6890
vn -0.7594 0.6236 -0.1857
vn -0.7089 0.3743 -0.5977
vn -0.0166 0.1453 0.9892
vn -0.4890 -0.0247 0.8719
vn -0.5068 0.1177 0.8540
vn -0.5970 0.2926 -0.7470
vn -0.1025 0.4027 -0.9096
vn -0.0905 0.3420 -0.9353
vn -0.0035 0.0232 0.9997
vn 0.5291 0.0378 0.8477
vn 0.5485 0.0179 0.8360
vn 0.5723 0.2578 -0.7785
vn 0.5172 0.2896 -0.8054
vn -0.5741 0.2842 -0.7679
vn -0.5349 0.5625 -0.6305
vn 0.5439 0.0658 0.8365
vn 0.3304 0.5241 0.7849
vn 0.6274 0.1776 0.7582
vn -0.8301 0.2383 0.5041
vn 0.9181 0.3944 0.0401
vn 0.7206 0.2253 0.6557
vn 0.7561 0.2779 0.5925
vn -0.4785 0.1575 0.8639
vn 0.5111 0.0833 0.8555
vn 0.9912 0.1323 -0.0005
vn -0.7853 0.2414 -0.5702
vn 0.7329 0.1643 0.6602
vn 0.0279 -0.2215 0.9748
vn 0.5409 -0.0100 0.8410
vn 0.0433 0.0898 0.9950
vn -0.0286 0.4218 0.9062
vn -0.1855 0.6567 -0.7310
vn -0.7602 0.5789 -0.2950
vn 0.1184 0.2905 -0.9495
vn -0.6926 0.3456 0.6331
vn -0.6211 0.3915 0.6790
vn 0.7093 0.0427 -0.7036
vn -0.9136 0.4065 0.0042
vn 0.9991 -0.0086 -0.0422
vn 0.8040 -0.0400 0.5933
vn -0.7365 0.3042 -0.6041
vn -0.0669 0.2703 -0.9604
vn -0.6703 0.1208 0.7322
vn 0.6854 0.1414 -0.7143
vn -0.9730 0.2300 0.0165
vn 0.9987 0.0288 -0.0417
vn 0.9470 0.1386 0.2897
vn 0.9544 -0.2970 0.0305
vn 0.7755 -0.0337 0.6305
vn 0.9974 -0.0662 -0.0273
vn 0.6137 0.0182 -0.7894
vn 0.3703 -0.2486 -0.8950
vn -0.6592 -0.0162 0.7518
vn -0.9746 -0.1696 0.1464
vn -0.5479 -0.0540 0.8348
vn -0.1348 -0.0063 -0.9909
vn -0.1461 -0.3240 -0.9347
vn 0.3664 -0.1833 0.9122
vn -0.1461 0.2322 0.9616
vn -0.4557 0.1445 0.8783
vn -0.4596 0.1773 0.8702
vn 0.3282 0.0064 0.9446
vn 0.1385 0.0130 0.9903
vn 0.1160 0.2598 0.9587
vn -0.2262 0.1617 0.9606
vn 0.0790 0.1599 0.9840
vn 0.2304 0.3047 0.9241
vn 0.0318 0.1980 0.9797
vn -0.1100 0.1929 0.9750
vn -0.0367 0.1984 0.9794
vn 0.4601 -0.2825 0.8417
vn 0.7483 -0.0953 0.6564
vn -0.3420 -0.1352 0.9299
vn 0.7322 -0.0149 0.6809
vn 0.0497 -0.3954 0.9172
vn -0.5315 -0.0572 0.8451
vn -0.6209 0.0688 0.7809
vn 0.6279 0.0232 0.7780
vn -0.6299 0.1287 0.7659
vn -0.3453 -0.0761 0.9354
vn 0.4962 0.0378 0.8674
vn -0.5020 -0.0579 0.8629
vn -0.3238 -0.0970 0.9411
vn 0.9367 0.3424 0.0733
vn 0.7501 -0.5571 0.3564
vn 0.7758 -0.4842 0.4047
vn -0.7497 -0.1294 -0.6490
vn -0.4788 -0.5594 -0.6766
vn -0.7494 -0.6107 0.2560
vn 0.0878 -0.3336 0.9386
vn 0.1176 0.3399 0.9331
vn 0.5069 0.2662 -0.8199
vn 0.3677 -0.2387 -0.8988
vn -0.5186 0.6046 0.6046
vn -0.2213 -0.2021 0.9540
vn -0.6821 0.4006 0.6117
vn -0.8845 -0.1502 -0.4416
vn -0.0653 -0.3832 -0.9214
vn 0.7952 -0.5853 0.1585
vn 0.7421 -0.2183 0.6338
vn 0.5542 0.2383 0.7975
vn -0.9659 -0.0776 0.2469
vn -0.1016 -0.8589 0.5019
vn -0.9166 -0.3836 0.1127
vn -0.9283 0.1997 0.3138
vn -0.3433 0.6037 -0.7195
vn -0.3589 0.6313 -0.6875
vn 0.6470 -0.7294 0.2223
vn 0.0048 -0.0256 0.9997
vn 0.6472 0.2451 -0.7219
vn -0.2362 -0.3295 -0.9141
vn 0.9691 0.1951 -0.1511
vn 0.5169 -0.3007 -0.8015
vn 0.7511 -0.6170 0.2349
vn -0.2397 0.4890 -0.8387
vn 0.7218 -0.1610 -0.6731
vn 0.7976 0.1174 -0.5916
vn 0.8423 -0.2630 0.4705
vn 0.8147 -0.4651 0.3463
vn 0.7993 0.2712 -0.5362
vn -0.2529 -0.3981 0.8818
vn -0.9427 0.1673 0.2887
vn -0.2050 -0.3081 0.9290
vn 0.1023 0.9083 0.4057
vn -0.3791 -0.0629 0.9232
vn 0.1796 0.7467 0.6405
vn -0.5207 -0.0650 0.8513
vn -0.6279 -0.7609 0.1636
vn -0.6423 -0.7624 0.0793
vn -0.1445 0.6819 0.7170
vn 0.4060 0.6597 -0.6325
vn -0.3542 -0.5492 -0.7569
vn -0.1025 -0.5555 -0.8252
vn -0.5670 0.0048 -0.8237
vn -0.7341 -0.0070 0.6790
vn -0.7888 -0.5090 -0.3446
vn -0.7043 -0.7068 -0.0658
vn 0.1152 -0.6014 -0.7906
vn 0.1373 -0.4679 -0.8730
vn 0.7750 0.4000 -0.4893
vn 0.0041 0.6728 0.7398
vn 0.0293 0.7190 0.6944
vn 0.9491 0.1452 -0.2796
vn -0.8887 0.1480 0.4339
vn 0.0294 0.5428 0.8394
vn 0.1949 -0.2602 -0.9457
vn 0.9672 0.1731 -0.1860
vn -0.9235 0.2211 0.3135
vn -0.7877 -0.2087 -0.5796
vn -0.0699 0.9474 -0.3125
vn 0.3166 0.8638 0.3918
vn 0.1435 0.6376 0.7569
vn -0.2224 0.8726 0.4349
vn -0.0787 -0.8190 0.5684
vn -0.1255 0.9131 -0.3880
vn -0.2642 0.5751 -0.7742
vn 0.6635 0.6402 0.3871
vn 0.2459 0.9269 -0.2836
vn 0.2859 0.8177 -0.4997
vn -0.1226 -0.7852 0.6070
vn -0.5794 -0.5028 0.6414
vn -0.5197 0.7519 -0.4057
vn -0.5444 0.8263 -0.1443
vn 0.2542 0.9531 -0.1641
vn 0.9525 0.3044 -0.0090
vn 0.6985 -0.5635 0.4410
vn 0.9735 0.2283 0.0162
vn 0.5250 -0.3344 0.7826
vn -0.3768 -0.4130 0.8291
vn -0.2194 -0.4936 0.8416
vn -0.2541 0.3755 -0.8913
vn -0.9258 -0.2215 -0.3062
vn -0.0946 0.3277 -0.9400
vn 0.9522 0.2768 -0.1292
vn 0.6161 0.7485 -0.2452
vn 0.9796 0.1818 -0.0860
vn -0.9863 -0.1490 -0.0704
vn 0.3550 0.5508 -0.7554
vn 0.4885 0.5446 -0.6818
vn -0.4973 -0.3912 0.7743
vn -0.8989 -0.2107 -0.3841
vn 0.5723 0.5688 -0.5907
vn 0.7966 0.4711 0.3788
vn 0.2259 -0.1029 0.9687
vn -0.3522 -0.3189 0.8799
vn 0.0164 0.3402 -0.9402
vn -0.4727 0.8622 0.1818
vn -0.4754 0.6194 -0.6248
vn 0.2843 0.7340 -0.6167
vn 0.9683 0.2469 -0.0380
vn -0.1347 -0.6921 0.7091
vn -0.9853 -0.1336 0.1069
vn 0.6860 -0.4661 0.5587
vn -0.4081 0.5089 -0.7579
vn 0.2835 0.6413 -0.7129
vn 0.9647 0.2627 -0.0183
vn -0.9923 -0.1177 0.0399
vn 0.6315 -0.4026 0.6627
vn -0.1560 -0.6191 0.7697
vn -0.8026 -0.5236 -0.2859
vn -0.0546 0.5621 -0.8253
vn 0.0721 -0.3840 0.9205
vn -0.8328 -0.5422 -0.1111
vn 0.6034 0.6831 0.4114
vn -0.7001 0.6325 0.3313
vn -0.1002 -0.3783 0.9202
vn 0.0881 0.8062 0.5851
vn 0.1631 -0.5201 0.8384
vn 0.9276 0.1629 -0.3363
vn -0.8340 0.3698 0.4095
vn 0.2578 0.5217 0.8132
vn -0.2515 -0.4107 -0.8764
vn -0.2734 0.9054 -0.3250
vn 0.1861 0.5301 0.8273
vn -0.9562 0.0667 0.2851
vn -0.8787 0.1832 0.4407
vn -0.8687 -0.1362 -0.4763
vn 0.8147 -0.0776 -0.5747
vn 0.8678 0.3318 0.3700
vn 0.8073 0.4642 0.3644
vn -0.7733 0.4392 0.4573
vn -0.0341 0.2186 0.9752
vn 0.0221 0.5036 0.8636
vn -0.0163 -0.1976 -0.9801
vn -0.8616 0.1429 -0.4871
vn -0.0403 0.1544 -0.9872
vn 0.8499 -0.0293 -0.5261
vn -0.8900 0.1596 0.4272
vn 0.0781 0.9862 0.1462
vn 0.8821 0.1704 0.4392
vn 0.8341 0.1386 -0.5339
vn -0.0952 0.2233 0.9701
vn -0.0937 0.5887 0.8029
vn 0.3525 0.9324 0.0798
vn 0.1457 0.9878 0.0554
vn 0.4762 0.5783 -0.6624
vn 0.5333 0.2119 -0.8190
vn -0.4105 0.1849 0.8929
vn -0.3333 0.5866 0.7381
vn 0.1268 0.9901 0.0605
vn 0.6941 0.1655 -0.7006
vn 0.6120 0.5589 -0.5595
vn -0.6204 0.1763 0.7642
vn -0.4993 0.5888 0.6356
vn 0.0998 0.9915 0.0835
vn 0.8478 0.1511 -0.5083
vn 0.7265 0.5589 -0.3999
vn 0.1111 0.9793 0.1693
vn 0.0253 0.2015 0.9792
vn -0.5832 0.5708 -0.5780
vn -0.2104 0.9773 0.0244
vn 0.3137 0.6221 0.7173
vn 0.4757 0.2084 0.8546
vn -0.7421 0.5490 -0.3845
vn -0.1040 0.9845 0.1413
vn -0.6932 0.2763 -0.6657
vn 0.5529 0.5550 0.6215
vn 0.6623 0.2161 0.7174
vn -0.1453 0.9657 0.2152
vn -0.8575 0.2381 -0.4560
vn -0.6171 0.6749 -0.4046
vn 0.8436 0.3527 0.4049
vn 0.2452 0.6275 0.7390
vn 0.8737 0.2406 -0.4228
vn 0.6085 -0.2110 0.7650
vn 0.6858 0.3040 0.6613
vn -0.6744 -0.1487 0.7233
vn -0.6288 -0.5389 0.5605
vn 0.8840 -0.2501 -0.3949
vn 0.6441 -0.3417 0.6844
vn -0.6810 -0.3614 -0.6369
vn -0.6421 -0.5972 -0.4806
vn -0.7771 -0.0060 -0.6293
vn -0.6764 0.0658 0.7336
vn -0.7620 -0.1444 -0.6312
vn 0.9161 0.0376 -0.3992
vn 0.6904 0.1927 0.6973
vn 0.6989 0.1364 0.7021
vn 0.8742 -0.2003 0.4423
vn 0.6243 0.4738 -0.6211
vn 0.6898 0.5799 0.4335
vn -0.6931 0.1213 0.7105
vn -0.3079 -0.5223 0.7952
vn -0.0788 -0.7985 -0.5968
vn -0.3349 -0.6482 -0.6838
vn 0.8279 0.0062 0.5609
vn 0.9269 -0.3709 0.0566
vn 0.9971 -0.0252 0.0717
vn -0.0218 0.6543 0.7559
vn 0.6571 0.6360 -0.4047
vn 0.5654 0.5755 0.5908
vn -0.1085 -0.6706 0.7338
vn 0.0651 0.9174 -0.3927
vn 0.0399 0.6767 0.7352
vn 0.0830 0.9114 0.4030
vn 0.0268 0.5976 -0.8014
vn 0.0582 0.6155 -0.7860
vn 0.0761 0.8940 0.4415
vn 0.6655 0.0216 -0.7460
vn 0.8116 0.3337 0.4795
vn 0.8513 0.1681 0.4971
vn 0.6697 0.1156 -0.7336
vn 0.9174 0.0785 -0.3901
vn 0.6164 -0.3393 -0.7106
vn 0.1360 0.9900 0.0372
vn 0.1197 0.9254 -0.3595
vn 0.6998 0.7138 -0.0254
vn 0.9559 0.2871 0.0617
vn 0.9932 0.1099 0.0385
vn 0.9883 0.0612 -0.1400
vn 0.8596 -0.1225 -0.4960
vn 0.6919 0.0306 -0.7214
vn 0.8396 0.1067 0.5327
vn 0.5660 -0.4104 -0.7150
vn -0.6574 -0.2352 0.7159
vn -0.8493 0.2378 -0.4713
vn -0.6925 0.3429 0.6347
vn 0.6679 -0.1212 0.7344
vn -0.8812 -0.2110 -0.4230
vn -0.8315 -0.0887 -0.5485
vn 0.7064 -0.3459 -0.6175
vn 0.6147 -0.5581 0.5574
vn 0.7860 -0.0640 -0.6149
vn 0.6761 0.0681 0.7336
vn 0.6522 0.0898 0.7527
vn 0.7816 -0.1642 -0.6018
vn -0.6828 0.2632 0.6815
vn -0.9020 0.0999 -0.4199
vn -0.7125 0.2087 0.6699
vn -0.6296 0.6189 0.4697
vn -0.5908 -0.3588 -0.7227
vn -0.8646 -0.1561 0.4776
vn 0.1607 -0.5471 0.8215
vn 0.2657 -0.6701 -0.6931
vn 0.6542 -0.5878 -0.4760
vn -0.6760 -0.3303 0.6587
vn -0.8054 0.0026 0.5928
vn -0.9365 -0.3462 0.0556
vn -0.5992 0.5346 0.5960
vn -0.6502 0.6364 -0.4149
vn -0.0105 0.6872 0.7264
vn 0.0186 0.9248 -0.3800
vn 0.0417 0.6131 -0.7889
vn -0.0157 0.8895 0.4566
vn -0.7844 0.3353 0.5218
vn -0.6355 0.0612 -0.7697
vn -0.8386 0.2359 0.4910
vn -0.6437 0.1127 -0.7570
vn -0.8964 0.1318 -0.4232
vn -0.6388 -0.3430 -0.6887
vn 0.0176 0.9990 0.0400
vn 0.1083 0.9926 0.0551
vn -0.6725 0.7324 0.1062
vn -0.9453 0.3195 0.0656
vn -0.9836 0.1800 0.0124
vn -0.9697 0.1234 -0.2109
vn -0.9971 -0.0304 0.0697
vn -0.6837 0.0674 -0.7266
vn -0.8399 0.1731 0.5145
vn -0.5870 0.5307 -0.6114
vn 0.3608 0.1597 0.9189
vt 0.319369 0.166293
vt 0.242424 0.136887
vt 0.274812 0.105059
vt 0.356845 0.675005
vt 0.277173 0.727224
vt 0.308753 0.657210
vt 0.384761 0.319701
vt 0.317332 0.254239
vt 0.353618 0.238213
vt 0.435952 0.704015
vt 0.344159 0.783623
vt 0.394012 0.691776
vt 0.527618 0.211736
vt 0.540529 0.100399
vt 0.572701 0.163181
vt 0.806549 0.642240
vt 0.894818 0.593367
vt 0.884549 0.709894
vt 0.372449 0.113490
vt 0.373970 0.208503
vt 0.344052 0.141568
vt 0.908009 0.780359
vt 0.950028 0.741653
vt 0.949002 0.773951
vt 0.406312 0.086741
vt 0.322295 0.037622
vt 0.351604 0.001727
vt 0.901846 0.708874
vt 0.860174 0.755738
vt 0.853085 0.725174
vt 0.917428 0.601995
vt 0.930139 0.701361
vt 0.383804 0.048063
vt 0.489918 0.012441
vt 0.488864 0.045147
vt 0.681674 0.567722
vt 0.783133 0.557916
vt 0.686574 0.608391
vt 0.462105 0.114072
vt 0.478769 0.721293
vt 0.378272 0.816519
vt 0.412365 0.307963
vt 0.416321 0.600707
vt 0.379773 0.588853
vt 0.423820 0.472481
vt 0.389079 0.470770
vt 0.949358 0.806270
vt 0.297057 0.073886
vt 0.868617 0.785811
vt 0.458614 0.478810
vt 0.331377 0.577039
vt 0.284265 0.190347
vt 0.342243 0.473048
vt 0.916400 0.834595
vt 0.314179 0.755533
vt 0.874954 0.814881
vt 0.289788 0.416347
vt 0.343405 0.394575
vt 0.224744 0.178666
vt 0.234578 0.210563
vt 0.200535 0.170036
vt 0.282298 0.336417
vt 0.345467 0.332402
vt 0.237790 0.693079
vt 0.255325 0.638008
vt 0.263546 0.269605
vt 0.273149 0.570219
vt 0.288386 0.484118
vt 0.164175 0.246033
vt 0.144281 0.201933
vt 0.196818 0.370403
vt 0.177514 0.661868
vt 0.187667 0.618577
vt 0.182048 0.307764
vt 0.200059 0.558047
vt 0.220274 0.478113
vt 0.119092 0.537352
vt 0.146301 0.483085
vt 0.156864 0.546745
vt 0.124921 0.601894
vt 0.063561 0.600595
vt 0.072402 0.395065
vt 0.115728 0.339533
vt 0.117269 0.390649
vt 0.097526 0.645713
vt 0.028180 0.688172
vt 0.885171 0.830180
vt 0.367527 0.354427
vt 0.485025 0.307056
vt 0.441862 0.293604
vt 0.479532 0.281541
vt 0.498747 0.459899
vt 0.463553 0.455783
vt 0.392550 0.446405
vt 0.452622 0.317632
vt 0.428914 0.451179
vt 0.366361 0.439267
vt 0.357095 0.394281
vt 0.421817 0.329623
vt 0.390868 0.339796
vt 0.379303 0.362119
vt 0.396117 0.348484
vt 0.378536 0.430370
vt 0.423885 0.338018
vt 0.367496 0.394393
vt 0.460840 0.449279
vt 0.429260 0.444401
vt 0.451962 0.326369
vt 0.397232 0.438263
vt 0.492188 0.453144
vt 0.480470 0.316946
vt 0.375580 0.394432
vt 0.387043 0.366494
vt 0.477767 0.324814
vt 0.487692 0.448601
vt 0.458381 0.444584
vt 0.429267 0.439053
vt 0.400204 0.432577
vt 0.451277 0.333771
vt 0.385913 0.425547
vt 0.425551 0.345281
vt 0.400175 0.355094
vt 0.495976 0.645975
vt 0.552639 0.626663
vt 0.537040 0.665193
vt 0.000871 0.259737
vt 0.094402 0.285604
vt 0.024771 0.315481
vt 0.057022 0.353451
vt 0.119994 0.429211
vt 0.202719 0.437434
vt 0.074844 0.239236
vt 0.000871 0.639172
vt 0.026014 0.587502
vt 0.100070 0.924937
vt 0.149108 0.891697
vt 0.146898 0.925548
vt 0.944640 0.345010
vt 0.919882 0.256184
vt 0.959072 0.255949
vt 0.063271 0.529316
vt 0.098927 0.477035
vt 0.052945 0.478605
vt 0.652442 0.655519
vt 0.598964 0.625817
vt 0.649995 0.607428
vt 0.264756 0.794733
vt 0.336254 0.869238
vt 0.248906 0.821362
vt 0.077165 0.852126
vt 0.075215 0.889193
vt 0.001102 0.059746
vt 0.034105 0.087838
vt 0.012021 0.091133
vt 0.092441 0.799561
vt 0.151743 0.863373
vt 0.132060 0.769404
vt 0.163803 0.829307
vt 0.252604 0.859881
vt 0.316713 0.906134
vt 0.243120 0.885771
vt 0.324471 0.888440
vt 0.240653 0.910745
vt 0.315967 0.947392
vt 0.217524 0.932343
vt 0.315260 0.925765
vt 0.407377 0.926986
vt 0.350371 0.852288
vt 0.820207 0.874233
vt 0.792645 0.919126
vt 0.768211 0.878282
vt 0.817045 0.839992
vt 0.758604 0.848165
vt 0.765337 0.650522
vt 0.746589 0.745580
vt 0.713763 0.684401
vt 0.790937 0.788649
vt 0.739101 0.803311
vt 0.805940 0.724859
vt 0.695866 0.881709
vt 0.631022 0.867432
vt 0.690697 0.856890
vt 0.667680 0.828266
vt 0.604881 0.850492
vt 0.665679 0.781412
vt 0.582272 0.775656
vt 0.648285 0.729350
vt 0.590618 0.817495
vt 0.633546 0.924834
vt 0.629385 0.890121
vt 0.497328 0.843443
vt 0.522749 0.876750
vt 0.506923 0.864144
vt 0.535393 0.902400
vt 0.538350 0.887579
vt 0.439472 0.913165
vt 0.527448 0.922061
vt 0.045743 0.768283
vt 0.029213 0.844631
vt 0.053762 0.702827
vt 0.165647 0.737388
vt 0.018627 0.901119
vt 0.001883 0.947392
vt 0.202180 0.760808
vt 0.179604 0.794776
vt 0.839783 0.778677
vt 0.853490 0.704300
vt 0.739553 0.298278
vt 0.833253 0.254078
vt 0.774695 0.345010
vt 0.873770 0.830576
vt 0.917219 0.871857
vt 0.857176 0.924834
vt 0.713989 0.917381
vt 0.590804 0.662840
vt 0.210264 0.047099
vt 0.191454 0.089813
vt 0.166441 0.095834
vt 0.499005 0.580061
vt 0.494976 0.519249
vt 0.535085 0.529815
vt 0.609882 0.580787
vt 0.646974 0.573248
vt 0.683741 0.612782
vt 0.693205 0.649552
vt 0.448083 0.567211
vt 0.465089 0.620243
vt 0.519435 0.607848
vt 0.573273 0.579173
vt 0.550610 0.557400
vt 0.619631 0.430277
vt 0.657901 0.387543
vt 0.640081 0.456071
vt 0.692895 0.434769
vt 0.685173 0.372651
vt 0.703216 0.366696
vt 0.037409 0.467189
vt 0.001619 0.421512
vt 0.025850 0.416757
vt 0.669479 0.440689
vt 0.592530 0.411108
vt 0.626676 0.370410
vt 0.608409 0.416710
vt 0.571402 0.398695
vt 0.619436 0.351663
vt 0.675189 0.312007
vt 0.694396 0.300351
vt 0.603154 0.339190
vt 0.650243 0.284402
vt 0.654001 0.300726
vt 0.661306 0.311369
vt 0.636646 0.383983
vt 0.705682 0.290976
vt 0.692038 0.200344
vt 0.639652 0.274081
vt 0.533319 0.466973
vt 0.558217 0.484642
vt 0.571017 0.507926
vt 0.620420 0.534065
vt 0.655589 0.516596
vt 0.586979 0.529273
vt 0.678455 0.579059
vt 0.685471 0.513410
vt 0.551912 0.432704
vt 0.575778 0.447112
vt 0.590756 0.460765
vt 0.662223 0.479301
vt 0.604662 0.478471
vt 0.687914 0.473851
vt 0.630117 0.494556
vt 0.130270 0.064591
vt 0.134736 0.112647
vt 0.126370 0.113031
vt 0.178614 0.037133
vt 0.157651 0.088326
vt 0.159419 0.010580
vt 0.126370 0.001840
vt 0.147900 0.063628
vt 0.152944 0.118894
vt 0.160930 0.127662
vt 0.126525 0.160562
vt 0.147050 0.113507
vt 0.001619 0.328018
vt 0.064532 0.411069
vt 0.059383 0.469715
vt 0.039936 0.414999
vt 0.069002 0.393137
vt 0.035121 0.150828
vt 0.107921 0.021420
vt 0.085593 0.075363
vt 0.066916 0.001701
vt 0.126055 0.056222
vt 0.104106 0.075280
vt 0.027980 0.023314
vt 0.047760 0.071278
vt 0.043094 0.146976
vt 0.063694 0.205679
vt 0.112989 0.088959
vt 0.092155 0.140006
vt 0.048880 0.138620
vt 0.084386 0.135947
vt 0.096553 0.148516
vt 0.066916 0.204352
vt 0.923427 0.172866
vt 0.957921 0.167346
vt 0.793198 0.178717
vt 0.866268 0.150547
vt 0.808521 0.223974
vt 0.701870 0.185125
vt 0.737308 0.230431
vt 0.831122 0.342941
vt 0.872193 0.261746
vt 0.902809 0.322483
vt 0.951280 0.075460
vt 0.889113 0.171859
vt 0.986270 0.172097
vt 0.983136 0.083931
vt 0.999139 0.084586
vt 0.781459 0.143346
vt 0.856215 0.116445
vt 0.967474 0.082107
vt 0.996726 0.001428
vt 0.938445 0.063541
vt 0.848129 0.086921
vt 0.928200 0.048262
vt 0.920796 0.034614
vt 0.820556 0.504056
vt 0.834477 0.513153
vt 0.842665 0.582641
vt 0.873140 0.521578
vt 0.907946 0.527742
vt 0.923084 0.533269
vt 0.866820 0.446138
vt 0.876247 0.449601
vt 0.899072 0.452582
vt 0.930139 0.456897
vt 0.920523 0.454894
vt 0.898811 0.381579
vt 0.903398 0.382785
vt 0.914240 0.383794
vt 0.929612 0.384757
vt 0.924811 0.384538
vt 0.919869 0.336319
vt 0.563792 0.230891
vt 0.598142 0.181847
vt 0.600405 0.023074
vt 0.633341 0.065154
vt 0.647582 0.111012
vt 0.662224 0.129201
vt 0.738798 0.027028
vt 0.765449 0.054576
vt 0.602084 0.001032
vt 0.760383 0.079152
vt 0.767583 0.088993
vt 0.866472 0.042347
vt 0.742107 0.015740
vt 0.430035 0.659499
vt 0.471615 0.685226
vt 0.421612 0.592894
vt 0.705682 0.684268
vt 0.583280 0.699899
vt 0.657721 0.702344
vt 0.520575 0.705528
vt 0.238987 0.192708
vt 0.224288 0.457398
vt 0.219528 0.443263
vt 0.744990 0.422767
vt 0.764216 0.379101
vt 0.765645 0.423661
vt 0.445754 0.230226
vt 0.459017 0.269324
vt 0.433093 0.277324
vt 0.392584 0.423521
vt 0.396903 0.404261
vt 0.394994 0.425073
vt 0.487951 0.325398
vt 0.533926 0.371832
vt 0.484925 0.374184
vt 0.484925 0.221853
vt 0.538703 0.280834
vt 0.489467 0.283165
vt 0.536424 0.323125
vt 0.741945 0.528797
vt 0.766921 0.466102
vt 0.765987 0.527508
vt 0.396034 0.395542
vt 0.415666 0.361419
vt 0.417957 0.391585
vt 0.433093 0.127632
vt 0.469705 0.183224
vt 0.445365 0.187876
vt 0.469346 0.225705
vt 0.089075 0.188169
vt 0.140128 0.166767
vt 0.140650 0.188169
vt 0.090334 0.191068
vt 0.139391 0.191068
vt 0.025260 0.146913
vt 0.023780 0.175148
vt 0.022566 0.145262
vt 0.393876 0.396007
vt 0.394883 0.399902
vt 0.392531 0.400067
vt 0.000918 0.143937
vt 0.419405 0.405491
vt 0.417290 0.427249
vt 0.021986 0.123862
vt 0.449552 0.403225
vt 0.469710 0.425761
vt 0.448426 0.426690
vt 0.448996 0.394043
vt 0.448491 0.361967
vt 0.469710 0.362827
vt 0.469157 0.393673
vt 0.705407 0.464823
vt 0.732608 0.421805
vt 0.732158 0.464336
vt 0.705346 0.421602
vt 0.732184 0.377548
vt 0.744450 0.466231
vt 0.388651 0.369800
vt 0.452489 0.398197
vt 0.469260 0.403621
vt 0.418557 0.398055
vt 0.738389 0.424288
vt 0.737826 0.467586
vt 0.735056 0.529424
vt 0.742371 0.377531
vt 0.394697 0.404064
vt 0.703849 0.527653
vt 0.729141 0.526027
vt 0.055370 0.055652
vt 0.078286 0.075872
vt 0.054823 0.077053
vt 0.056532 0.108806
vt 0.051994 0.078461
vt 0.050682 0.107707
vt 0.423755 0.203269
vt 0.407265 0.242054
vt 0.398309 0.197581
vt 0.424675 0.161019
vt 0.398480 0.154988
vt 0.435208 0.100448
vt 0.403197 0.092300
vt 0.537465 0.219366
vt 0.392561 0.365116
vt 0.464353 0.121658
vt 0.026539 0.174013
vt 0.000918 0.173718
vt 0.468967 0.398111
vt 0.737325 0.376675
vt 0.078073 0.054555
vt 0.078286 0.106365
vt 0.435208 0.250788
vt 0.381413 0.001032
vt 0.766357 0.539277
vt 0.415676 0.849256
vt 0.948569 0.823318
vt 0.950028 0.709851
vt 0.500265 0.484134
vt 0.112649 0.651770
vt 0.922199 0.924178
vt 0.240169 0.050499
vt 0.471079 0.537465
vt 0.063694 0.001240
vt 0.089597 0.166768
vt 0.001173 0.122587
vt 0.703849 0.376150
s 1
usemtl tree_door
f 26/1/1 36/2/2 30/3/3
f 27/4/4 36/5/2 32/6/5
f 62/7/6 33/8/7 28/9/8
f 12/10/9 23/11/10 20/12/11
f 54/13/12 251/14/13 252/15/14
f 22/16/15 231/17/16 12/18/9
f 11/19/17 21/20/18 19/21/19
f 51/22/20 10/23/21 18/24/22
f 3/25/23 15/26/24 7/27/25
f 63/28/26 9/29/27 56/30/28
f 12/18/9 6/31/29 4/32/30
f 11/33/17 5/34/31 250/35/32
f 2/36/33 233/37/34 55/38/35
f 21/39/18 250/35/32 251/14/13
f 4/40/30 15/41/24 12/10/9
f 60/42/36 28/9/8 21/20/18
f 22/43/15 27/4/4 29/44/37
f 21/20/18 26/1/1 19/21/19
f 59/45/38 29/44/37 58/46/39
f 51/22/20 18/24/22 25/47/40
f 11/19/17 23/48/10 15/26/24
f 9/29/27 51/22/20 17/49/41
f 55/50/35 22/43/15 59/45/38
f 29/44/37 32/6/5 35/51/42
f 28/9/8 24/52/43 26/1/1
f 29/44/37 61/53/44 58/46/39
f 25/47/40 34/54/45 51/22/20
f 20/12/11 30/55/3 27/4/4
f 19/21/19 30/3/3 23/48/10
f 17/49/41 51/22/20 16/56/46
f 61/53/44 278/57/47 53/58/48
f 276/59/49 37/60/50 42/61/51
f 53/58/48 38/62/52 52/63/53
f 32/6/5 42/64/51 39/65/54
f 33/8/7 38/62/52 40/66/55
f 32/6/5 41/67/56 35/51/42
f 24/52/43 40/66/55 37/60/50
f 35/51/42 279/68/57 61/53/44
f 42/61/51 44/69/58 50/70/59
f 278/57/47 45/71/60 38/62/52
f 39/65/54 50/72/59 46/73/61
f 38/62/52 47/74/62 40/66/55
f 39/65/54 49/75/63 41/67/56
f 40/66/55 44/69/58 37/60/50
f 41/67/56 281/76/64 279/68/57
f 100/77/65 87/78/66 89/79/67
f 100/77/65 86/80/68 97/81/69
f 96/82/70 92/83/71 88/84/72
f 97/81/69 90/85/73 101/86/74
f 51/22/20 31/87/75 16/56/46
f 63/28/26 10/23/21 51/22/20
f 64/88/76 53/58/48 52/63/53
f 66/89/77 54/90/12 1/91/78
f 69/92/79 55/50/35 68/93/80
f 70/94/81 59/45/38 58/46/39
f 67/95/82 60/42/36 54/90/12
f 71/96/83 55/50/35 59/45/38
f 73/97/84 53/58/48 65/98/85
f 72/99/86 62/7/6 60/42/36
f 73/97/84 58/46/39 61/53/44
f 64/88/76 62/7/6 74/100/87
f 75/101/88 74/100/87 85/102/89
f 84/103/90 70/94/81 73/97/84
f 85/102/89 72/99/86 83/104/91
f 84/103/90 65/98/85 79/105/92
f 77/106/93 71/96/83 82/107/94
f 80/108/95 72/99/86 67/95/82
f 78/109/96 71/96/83 70/94/81
f 81/110/97 68/93/80 77/106/93
f 76/111/98 67/95/82 66/89/77
f 75/101/88 65/98/85 64/88/76
f 34/112/45 75/101/88 31/113/75
f 56/114/28 80/108/95 76/111/98
f 57/115/99 77/106/93 10/116/21
f 18/117/22 78/109/96 25/118/40
f 9/119/27 83/104/91 80/108/95
f 10/116/21 82/107/94 18/117/22
f 8/120/100 79/105/92 34/112/45
f 17/121/41 85/102/89 83/104/91
f 8/120/100 78/109/96 84/103/90
f 31/113/75 85/102/89 16/122/46
f 273/123/101 156/124/102 271/125/103
f 101/126/74 93/127/104 95/128/105
f 98/129/106 93/127/104 92/83/71
f 96/82/70 88/84/72 91/130/107
f 87/78/66 280/131/108 281/76/64
f 89/79/67 46/73/61 86/80/68
f 93/127/104 47/74/62 92/83/71
f 86/80/68 50/72/59 90/85/73
f 90/132/73 44/69/58 93/127/104
f 92/83/71 45/71/60 88/84/72
f 88/84/72 280/131/108 91/130/107
f 89/79/67 281/76/64 49/75/63
f 97/81/69 106/133/109 103/134/110
f 135/135/111 107/136/112 109/137/113
f 101/138/74 217/139/114 213/140/115
f 97/81/69 105/141/116 100/77/65
f 94/142/117 105/141/116 102/143/118
f 272/144/119 157/145/120 154/146/121
f 139/147/122 116/148/123 140/149/124
f 136/150/125 107/136/112 134/151/126
f 111/152/127 206/153/128 204/154/129
f 138/155/130 110/156/131 136/150/125
f 137/157/132 108/158/133 138/155/130
f 141/159/134 115/160/135 142/161/136
f 141/159/134 116/148/123 113/162/137
f 143/163/138 114/164/139 139/165/122
f 143/163/138 115/160/135 112/166/140
f 114/164/139 112/166/140 117/167/141
f 112/166/140 115/160/135 117/167/141
f 116/148/123 114/168/139 117/167/141
f 115/160/135 113/162/137 117/167/141
f 113/162/137 116/148/123 117/167/141
f 145/169/142 121/170/143 119/171/144
f 146/172/145 119/171/144 120/173/146
f 144/174/147 122/175/148 121/176/143
f 148/177/149 120/173/146 118/178/150
f 148/177/149 122/175/148 147/179/151
f 149/180/152 125/181/153 150/182/154
f 151/183/155 125/181/153 123/184/156
f 152/185/157 126/186/158 153/187/159
f 151/183/155 127/188/160 152/185/157
f 149/180/152 126/189/158 124/190/161
f 127/188/160 131/191/162 126/186/158
f 127/188/160 128/192/163 132/193/164
f 126/189/158 129/194/165 124/190/161
f 124/190/161 130/195/166 125/181/153
f 123/184/156 130/195/166 128/192/163
f 130/195/166 129/194/165 133/196/167
f 128/192/163 130/195/166 133/196/167
f 131/191/162 132/193/164 133/196/167
f 132/193/164 128/192/163 133/196/167
f 129/194/165 131/197/162 133/196/167
f 103/198/110 137/157/132 138/155/130
f 105/199/116 138/155/130 136/150/125
f 106/200/109 135/201/111 137/157/132
f 105/199/116 134/151/126 102/202/118
f 102/202/118 135/135/111 104/203/168
f 107/136/112 142/161/136 143/163/138
f 107/136/112 139/165/122 109/137/113
f 108/158/133 140/149/124 141/159/134
f 108/158/133 142/161/136 110/156/131
f 109/204/113 140/149/124 111/205/127
f 95/206/105 147/179/151 101/207/74
f 95/206/105 146/172/145 148/177/149
f 104/208/168 212/209/169 99/210/170
f 98/211/106 145/169/142 146/172/145
f 96/212/70 144/213/147 145/169/142
f 119/171/144 153/214/159 149/180/152
f 118/178/150 152/185/157 122/175/148
f 122/175/148 153/187/159 121/176/143
f 118/178/150 150/182/154 151/183/155
f 120/173/146 149/180/152 150/182/154
f 270/215/171 156/124/102 157/145/120
f 87/78/66 94/142/117 91/130/107
f 161/216/172 192/217/173 194/218/174
f 158/219/175 161/220/172 164/221/176
f 154/146/121 163/222/177 160/223/178
f 272/144/119 155/224/179 274/225/180
f 274/226/180 158/219/175 275/227/181
f 275/227/181 159/228/182 273/123/101
f 157/145/120 162/229/183 163/222/177
f 159/228/182 162/229/183 156/124/102
f 158/219/175 165/230/184 159/228/182
f 185/231/185 169/232/186 189/233/187
f 190/234/188 166/235/189 167/236/190
f 187/237/191 171/238/192 201/239/193
f 186/240/194 169/232/186 166/235/189
f 188/241/195 171/242/192 187/243/191
f 190/244/188 170/245/196 188/241/195
f 166/235/189 175/246/197 172/247/198
f 167/248/190 176/249/199 170/245/196
f 170/245/196 177/250/200 171/242/192
f 169/232/186 174/251/201 175/246/197
f 171/242/192 174/251/201 168/252/202
f 167/236/190 172/247/198 173/253/203
f 175/246/197 174/251/201 178/254/204
f 174/251/201 177/250/200 178/254/204
f 173/253/203 172/247/198 178/254/204
f 172/247/198 175/246/197 178/254/204
f 176/249/199 173/255/203 178/254/204
f 177/250/200 176/249/199 178/254/204
f 164/221/176 181/256/205 184/257/206
f 164/221/176 183/258/207 165/230/184
f 160/223/178 179/259/208 182/260/209
f 165/230/184 180/261/210 162/229/183
f 161/262/172 182/260/209 181/263/205
f 163/222/177 180/261/210 179/259/208
f 265/264/211 188/241/195 269/265/212
f 269/265/212 187/243/191 268/266/213
f 267/267/214 189/233/187 186/240/194
f 268/266/213 185/231/185 266/268/215
f 265/269/211 186/240/194 190/234/188
f 266/268/215 189/233/187 264/270/216
f 192/271/173 195/272/217 196/273/218
f 160/274/178 194/218/174 193/275/219
f 154/276/121 192/271/173 155/277/179
f 160/274/178 191/278/220 154/276/121
f 198/279/221 196/280/218 199/281/222
f 194/218/174 196/280/218 198/279/221
f 194/218/174 197/282/223 193/275/219
f 193/275/219 195/272/217 191/278/220
f 197/282/223 198/279/221 199/281/222
f 195/272/217 197/282/223 199/281/222
f 196/273/218 195/272/217 199/281/222
f 201/239/193 171/238/192 202/283/224
f 168/284/202 185/285/185 200/286/225
f 187/237/191 200/286/225 185/285/185
f 171/287/192 168/284/202 202/283/224
f 200/286/225 201/239/193 202/283/224
f 168/284/202 200/286/225 202/283/224
f 206/153/128 208/288/226 204/154/129
f 109/289/113 205/290/227 135/291/111
f 111/292/127 203/293/228 109/289/113
f 137/294/132 205/295/227 206/153/128
f 208/288/226 210/296/229 211/297/230
f 204/298/129 207/299/231 203/293/228
f 206/153/128 209/300/232 210/296/229
f 203/293/228 209/301/232 205/290/227
f 207/299/231 208/302/226 211/303/230
f 210/296/229 209/300/232 211/297/230
f 209/301/232 207/299/231 211/303/230
f 217/139/114 222/304/233 223/305/234
f 215/306/235 220/307/236 214/308/237
f 101/309/74 215/306/235 106/310/109
f 106/310/109 214/308/237 104/208/168
f 144/311/147 212/209/169 216/312/238
f 147/313/151 216/312/238 217/139/114
f 220/307/236 224/314/239 218/315/240
f 219/316/241 229/317/242 225/318/243
f 216/312/238 218/315/240 222/304/233
f 213/319/115 221/320/244 215/306/235
f 213/140/115 223/305/234 219/316/241
f 214/308/237 218/315/240 212/209/169
f 228/321/245 224/314/239 230/322/246
f 229/317/242 228/321/245 230/322/246
f 221/320/244 226/323/247 220/307/236
f 223/305/234 228/321/245 229/317/242
f 222/304/233 224/314/239 228/321/245
f 219/324/241 227/325/248 221/320/244
f 227/325/248 225/326/243 230/322/246
f 225/318/243 229/317/242 230/322/246
f 224/314/239 226/323/247 230/322/246
f 226/323/247 227/325/248 230/322/246
f 233/37/34 235/327/249 238/328/250
f 22/16/15 233/37/34 232/329/251
f 22/43/15 12/10/9 20/12/11
f 231/17/16 237/330/252 236/331/253
f 231/17/16 234/332/254 6/31/29
f 232/329/251 238/328/250 237/330/252
f 238/328/250 240/333/255 243/334/256
f 237/330/252 243/334/256 242/335/257
f 236/331/253 239/336/258 234/332/254
f 236/331/253 242/335/257 241/337/259
f 243/334/256 245/338/260 248/339/261
f 242/335/257 248/339/261 247/340/262
f 241/337/259 244/341/263 239/336/258
f 241/337/259 247/340/262 246/342/264
f 248/339/261 245/338/260 249/343/265
f 247/340/262 248/339/261 249/343/265
f 244/341/263 246/342/264 249/343/265
f 246/342/264 247/340/262 249/343/265
f 1/344/78 252/15/14 13/345/266
f 21/20/18 54/90/12 60/42/36
f 251/14/13 255/346/267 256/347/268
f 13/345/266 257/348/269 254/349/270
f 251/14/13 257/348/269 252/15/14
f 5/34/31 255/346/267 250/35/32
f 256/347/268 260/350/271 261/351/272
f 253/352/273 260/350/271 255/346/267
f 256/347/268 262/353/274 257/348/269
f 254/349/270 262/353/274 259/354/275
f 259/354/275 262/353/274 263/355/276
f 261/351/272 260/350/271 263/355/276
f 260/350/271 258/356/277 263/355/276
f 262/353/274 261/351/272 263/355/276
f 180/261/210 264/270/216 179/259/208
f 181/263/205 267/267/214 265/269/211
f 183/258/207 266/268/215 180/261/210
f 182/260/209 264/270/216 267/267/214
f 184/257/206 268/266/213 183/258/207
f 181/256/205 269/265/212 184/257/206
f 104/357/168 273/123/101 102/358/118
f 99/359/170 275/227/181 104/357/168
f 99/360/170 272/144/119 274/225/180
f 91/361/107 271/125/103 270/215/171
f 96/362/70 270/215/171 272/144/119
f 94/363/117 273/123/101 271/125/103
f 277/364/278 36/2/2 24/52/43
f 36/2/2 276/59/49 42/61/51
f 37/60/50 277/364/278 24/52/43
f 43/365/279 278/57/47 279/68/57
f 43/365/279 280/131/108 48/366/280
f 43/365/279 279/68/57 281/76/64
f 48/366/280 280/131/108 278/57/47
f 323/367/281 287/368/282 295/369/283
f 296/370/284 287/371/282 286/372/285
f 287/373/282 324/374/286 299/375/287
f 291/376/288 286/377/285 288/378/289
f 284/379/290 297/380/291 290/381/292
f 290/381/292 296/382/284 291/376/288
f 317/383/293 294/384/294 283/385/295
f 325/386/296 305/387/297 328/388/298
f 282/389/299 294/390/294 297/391/291
f 297/391/291 295/392/283 296/370/284
f 298/393/300 355/394/301 300/395/302
f 286/396/285 300/395/302 288/397/289
f 286/398/285 299/399/287 298/400/300
f 318/401/303 313/402/304 308/403/305
f 299/399/287 303/404/306 298/400/300
f 299/375/287 329/405/307 304/406/308
f 303/404/306 306/407/309 298/400/300
f 326/408/310 356/409/311 303/410/306
f 327/411/312 305/387/297 302/412/313
f 303/410/306 329/405/307 326/408/310
f 327/411/312 307/413/314 330/414/315
f 293/415/316 322/416/317 321/417/318
f 292/418/319 318/419/303 322/416/317
f 320/420/320 295/369/283 294/384/294
f 289/421/321 325/386/296 318/401/303
f 315/422/322 378/423/323 326/408/310
f 312/424/324 324/374/286 313/402/304
f 312/424/324 326/408/310 329/405/307
f 310/425/325 320/420/320 311/426/326
f 311/426/326 317/383/293 309/427/327
f 310/425/325 319/428/328 323/367/281
f 313/402/304 319/429/328 308/403/305
f 285/430/329 321/417/318 316/431/330
f 318/419/303 310/425/325 322/416/317
f 316/431/330 311/426/326 309/427/327
f 321/417/318 310/425/325 311/426/326
f 327/411/312 312/424/324 328/388/298
f 325/386/296 312/424/324 313/402/304
f 330/414/315 315/422/322 327/411/312
f 355/432/301 302/433/313 300/434/302
f 302/433/313 301/435/331 300/434/302
f 288/436/289 301/435/331 289/437/321
f 291/438/288 289/439/321 292/440/319
f 290/441/292 292/440/319 293/442/316
f 284/443/290 293/442/316 285/444/329
f 336/368/332 371/367/333 344/369/334
f 345/370/335 336/371/332 344/392/334
f 336/373/332 372/374/336 367/429/337
f 340/376/338 335/377/339 345/382/335
f 333/379/340 346/380/341 331/445/342
f 339/381/343 345/382/335 346/380/341
f 343/384/344 365/383/345 332/385/346
f 376/388/347 350/446/348 373/386/349
f 331/389/342 343/390/344 332/447/346
f 346/391/341 344/392/334 343/390/344
f 355/394/301 347/393/350 349/395/351
f 349/395/351 335/396/339 337/397/352
f 335/398/339 348/399/353 336/448/332
f 366/401/354 362/402/355 373/386/349
f 347/400/350 353/449/356 348/399/353
f 348/375/353 377/405/357 372/374/336
f 306/407/309 352/404/358 347/400/350
f 356/409/311 374/408/359 352/410/358
f 351/412/360 376/388/347 375/411/361
f 374/408/359 353/406/356 352/410/358
f 330/414/315 351/412/360 375/411/361
f 370/416/362 342/415/363 369/417/364
f 366/419/354 341/418/365 370/416/362
f 344/369/334 368/420/366 343/384/344
f 373/386/349 338/421/367 366/401/354
f 363/422/368 378/423/323 314/450/369
f 372/374/336 361/424/370 362/402/355
f 361/424/370 374/408/359 363/422/368
f 368/420/366 359/425/371 360/426/372
f 365/383/345 360/426/372 358/427/373
f 359/425/371 367/428/337 357/451/374
f 367/429/337 362/402/355 357/403/374
f 369/417/364 334/430/375 364/431/376
f 370/416/362 357/451/374 366/419/354
f 364/431/376 360/426/372 369/417/364
f 369/417/364 359/425/371 370/416/362
f 361/424/370 375/411/361 376/388/347
f 373/386/349 361/424/370 376/388/347
f 363/422/368 330/414/315 375/411/361
f 355/432/301 351/433/360 307/452/314
f 349/434/351 354/453/377 351/433/360
f 350/435/348 337/436/352 338/437/367
f 340/438/338 338/439/367 337/454/352
f 339/441/343 341/440/365 340/438/338
f 333/443/340 342/442/363 339/441/343
f 26/1/1 24/52/43 36/2/2
f 27/4/4 30/55/3 36/5/2
f 62/7/6 52/63/53 33/8/7
f 12/10/9 15/41/24 23/11/10
f 54/13/12 21/39/18 251/14/13
f 22/16/15 232/329/251 231/17/16
f 3/25/23 11/19/17 15/26/24
f 63/28/26 51/22/20 9/29/27
f 12/18/9 231/17/16 6/31/29
f 11/33/17 3/455/23 5/34/31
f 2/36/33 14/456/378 233/37/34
f 21/39/18 11/33/17 250/35/32
f 4/40/30 7/457/25 15/41/24
f 60/42/36 62/7/6 28/9/8
f 22/43/15 20/12/11 27/4/4
f 21/20/18 28/9/8 26/1/1
f 59/45/38 22/43/15 29/44/37
f 11/19/17 19/21/19 23/48/10
f 29/44/37 27/4/4 32/6/5
f 28/9/8 33/8/7 24/52/43
f 29/44/37 35/51/42 61/53/44
f 25/47/40 8/458/100 34/54/45
f 20/12/11 23/11/10 30/55/3
f 19/21/19 26/1/1 30/3/3
f 61/53/44 279/68/57 278/57/47
f 276/59/49 277/364/278 37/60/50
f 53/58/48 278/57/47 38/62/52
f 32/6/5 36/5/2 42/64/51
f 33/8/7 52/63/53 38/62/52
f 32/6/5 39/65/54 41/67/56
f 24/52/43 33/8/7 40/66/55
f 35/51/42 41/67/56 279/68/57
f 42/61/51 37/60/50 44/69/58
f 278/57/47 280/131/108 45/71/60
f 39/65/54 42/64/51 50/72/59
f 38/62/52 45/71/60 47/74/62
f 39/65/54 46/73/61 49/75/63
f 40/66/55 47/74/62 44/69/58
f 41/67/56 49/75/63 281/76/64
f 100/77/65 94/142/117 87/78/66
f 100/77/65 89/79/67 86/80/68
f 96/82/70 98/129/106 92/83/71
f 97/81/69 86/80/68 90/85/73
f 51/22/20 34/54/45 31/87/75
f 63/28/26 57/459/99 10/23/21
f 64/88/76 65/98/85 53/58/48
f 66/89/77 67/95/82 54/90/12
f 69/92/79 2/460/33 55/50/35
f 70/94/81 71/96/83 59/45/38
f 67/95/82 72/99/86 60/42/36
f 71/96/83 68/93/80 55/50/35
f 73/97/84 61/53/44 53/58/48
f 72/99/86 74/100/87 62/7/6
f 73/97/84 70/94/81 58/46/39
f 64/88/76 52/63/53 62/7/6
f 75/101/88 64/88/76 74/100/87
f 84/103/90 78/109/96 70/94/81
f 85/102/89 74/100/87 72/99/86
f 84/103/90 73/97/84 65/98/85
f 77/106/93 68/93/80 71/96/83
f 80/108/95 83/104/91 72/99/86
f 78/109/96 82/107/94 71/96/83
f 81/110/97 69/92/79 68/93/80
f 76/111/98 80/108/95 67/95/82
f 75/101/88 79/105/92 65/98/85
f 34/112/45 79/105/92 75/101/88
f 56/114/28 9/119/27 80/108/95
f 57/115/99 81/110/97 77/106/93
f 18/117/22 82/107/94 78/109/96
f 9/119/27 17/121/41 83/104/91
f 10/116/21 77/106/93 82/107/94
f 8/120/100 84/103/90 79/105/92
f 17/121/41 16/122/46 85/102/89
f 8/120/100 25/118/40 78/109/96
f 31/113/75 75/101/88 85/102/89
f 273/123/101 159/228/182 156/124/102
f 101/126/74 90/132/73 93/127/104
f 98/129/106 95/128/105 93/127/104
f 87/78/66 91/130/107 280/131/108
f 89/79/67 49/75/63 46/73/61
f 93/127/104 44/69/58 47/74/62
f 86/80/68 46/73/61 50/72/59
f 90/132/73 50/70/59 44/69/58
f 92/83/71 47/74/62 45/71/60
f 88/84/72 45/71/60 280/131/108
f 89/79/67 87/78/66 281/76/64
f 97/81/69 101/86/74 106/133/109
f 135/135/111 134/151/126 107/136/112
f 101/138/74 147/313/151 217/139/114
f 97/81/69 103/134/110 105/141/116
f 94/142/117 100/77/65 105/141/116
f 272/144/119 270/215/171 157/145/120
f 139/147/122 114/168/139 116/148/123
f 136/150/125 110/156/131 107/136/112
f 111/152/127 137/294/132 206/153/128
f 138/155/130 108/158/133 110/156/131
f 137/157/132 111/205/127 108/158/133
f 141/159/134 113/162/137 115/160/135
f 141/159/134 140/149/124 116/148/123
f 143/163/138 112/166/140 114/164/139
f 143/163/138 142/161/136 115/160/135
f 145/169/142 144/213/147 121/170/143
f 146/172/145 145/169/142 119/171/144
f 144/174/147 147/179/151 122/175/148
f 148/177/149 146/172/145 120/173/146
f 148/177/149 118/178/150 122/175/148
f 149/180/152 124/190/161 125/181/153
f 151/183/155 150/182/154 125/181/153
f 152/185/157 127/188/160 126/186/158
f 151/183/155 123/184/156 127/188/160
f 149/180/152 153/214/159 126/189/158
f 127/188/160 132/193/164 131/191/162
f 127/188/160 123/184/156 128/192/163
f 126/189/158 131/197/162 129/194/165
f 124/190/161 129/194/165 130/195/166
f 123/184/156 125/181/153 130/195/166
f 103/198/110 106/200/109 137/157/132
f 105/199/116 103/198/110 138/155/130
f 106/200/109 104/461/168 135/201/111
f 105/199/116 136/150/125 134/151/126
f 102/202/118 134/151/126 135/135/111
f 107/136/112 110/156/131 142/161/136
f 107/136/112 143/163/138 139/165/122
f 108/158/133 111/205/127 140/149/124
f 108/158/133 141/159/134 142/161/136
f 109/204/113 139/147/122 140/149/124
f 95/206/105 148/177/149 147/179/151
f 95/206/105 98/211/106 146/172/145
f 104/208/168 214/308/237 212/209/169
f 98/211/106 96/212/70 145/169/142
f 96/212/70 99/462/170 144/213/147
f 119/171/144 121/170/143 153/214/159
f 118/178/150 151/183/155 152/185/157
f 122/175/148 152/185/157 153/187/159
f 118/178/150 120/173/146 150/182/154
f 120/173/146 119/171/144 149/180/152
f 270/215/171 271/125/103 156/124/102
f 161/216/172 155/463/179 192/217/173
f 158/219/175 155/464/179 161/220/172
f 154/146/121 157/145/120 163/222/177
f 272/144/119 154/146/121 155/224/179
f 274/226/180 155/464/179 158/219/175
f 275/227/181 158/219/175 159/228/182
f 157/145/120 156/124/102 162/229/183
f 159/228/182 165/230/184 162/229/183
f 158/219/175 164/221/176 165/230/184
f 185/231/185 168/252/202 169/232/186
f 190/234/188 186/240/194 166/235/189
f 186/240/194 189/233/187 169/232/186
f 188/241/195 170/245/196 171/242/192
f 190/244/188 167/248/190 170/245/196
f 166/235/189 169/232/186 175/246/197
f 167/248/190 173/255/203 176/249/199
f 170/245/196 176/249/199 177/250/200
f 169/232/186 168/252/202 174/251/201
f 171/242/192 177/250/200 174/251/201
f 167/236/190 166/235/189 172/247/198
f 164/221/176 161/220/172 181/256/205
f 164/221/176 184/257/206 183/258/207
f 160/223/178 163/222/177 179/259/208
f 165/230/184 183/258/207 180/261/210
f 161/262/172 160/223/178 182/260/209
f 163/222/177 162/229/183 180/261/210
f 265/264/211 190/244/188 188/241/195
f 269/265/212 188/241/195 187/243/191
f 267/267/214 264/270/216 189/233/187
f 268/266/213 187/243/191 185/231/185
f 265/269/211 267/267/214 186/240/194
f 266/268/215 185/231/185 189/233/187
f 192/271/173 191/278/220 195/272/217
f 160/274/178 161/216/172 194/218/174
f 154/276/121 191/278/220 192/271/173
f 160/274/178 193/275/219 191/278/220
f 194/218/174 192/217/173 196/280/218
f 194/218/174 198/279/221 197/282/223
f 193/275/219 197/282/223 195/272/217
f 187/237/191 201/239/193 200/286/225
f 206/153/128 210/296/229 208/288/226
f 109/289/113 203/293/228 205/290/227
f 111/292/127 204/298/129 203/293/228
f 137/294/132 135/465/111 205/295/227
f 204/298/129 208/302/226 207/299/231
f 206/153/128 205/295/227 209/300/232
f 203/293/228 207/299/231 209/301/232
f 217/139/114 216/312/238 222/304/233
f 215/306/235 221/320/244 220/307/236
f 101/309/74 213/319/115 215/306/235
f 106/310/109 215/306/235 214/308/237
f 144/311/147 99/210/170 212/209/169
f 147/313/151 144/311/147 216/312/238
f 220/307/236 226/323/247 224/314/239
f 219/316/241 223/305/234 229/317/242
f 216/312/238 212/209/169 218/315/240
f 213/319/115 219/324/241 221/320/244
f 213/140/115 217/139/114 223/305/234
f 214/308/237 220/307/236 218/315/240
f 221/320/244 227/325/248 226/323/247
f 223/305/234 222/304/233 228/321/245
f 222/304/233 218/315/240 224/314/239
f 219/324/241 225/326/243 227/325/248
f 233/37/34 14/456/378 235/327/249
f 22/16/15 55/38/35 233/37/34
f 231/17/16 232/329/251 237/330/252
f 231/17/16 236/331/253 234/332/254
f 232/329/251 233/37/34 238/328/250
f 238/328/250 235/327/249 240/333/255
f 237/330/252 238/328/250 243/334/256
f 236/331/253 241/337/259 239/336/258
f 236/331/253 237/330/252 242/335/257
f 243/334/256 240/333/255 245/338/260
f 242/335/257 243/334/256 248/339/261
f 241/337/259 246/342/264 244/341/263
f 241/337/259 242/335/257 247/340/262
f 1/344/78 54/13/12 252/15/14
f 251/14/13 250/35/32 255/346/267
f 13/345/266 252/15/14 257/348/269
f 251/14/13 256/347/268 257/348/269
f 5/34/31 253/352/273 255/346/267
f 256/347/268 255/346/267 260/350/271
f 253/352/273 258/356/277 260/350/271
f 256/347/268 261/351/272 262/353/274
f 254/349/270 257/348/269 262/353/274
f 180/261/210 266/268/215 264/270/216
f 181/263/205 182/260/209 267/267/214
f 183/258/207 268/266/213 266/268/215
f 182/260/209 179/259/208 264/270/216
f 184/257/206 269/265/212 268/266/213
f 181/256/205 265/264/211 269/265/212
f 104/357/168 275/227/181 273/123/101
f 99/359/170 274/226/180 275/227/181
f 99/360/170 96/362/70 272/144/119
f 91/361/107 94/363/117 271/125/103
f 96/362/70 91/361/107 270/215/171
f 94/363/117 102/358/118 273/123/101
f 277/364/278 276/59/49 36/2/2
f 43/365/279 48/366/280 278/57/47
f 43/365/279 281/76/64 280/131/108
f 323/367/281 319/428/328 287/368/282
f 296/370/284 295/392/283 287/371/282
f 287/373/282 319/429/328 324/374/286
f 291/376/288 296/382/284 286/377/285
f 284/379/290 282/445/299 297/380/291
f 290/381/292 297/380/291 296/382/284
f 317/383/293 320/420/320 294/384/294
f 325/386/296 301/446/331 305/387/297
f 282/389/299 283/447/295 294/390/294
f 297/391/291 294/390/294 295/392/283
f 298/393/300 306/466/309 355/394/301
f 286/396/285 298/393/300 300/395/302
f 286/398/285 287/448/282 299/399/287
f 318/401/303 325/386/296 313/402/304
f 299/399/287 304/449/308 303/404/306
f 299/375/287 324/374/286 329/405/307
f 303/404/306 356/467/311 306/407/309
f 326/408/310 378/423/323 356/409/311
f 327/411/312 328/388/298 305/387/297
f 303/410/306 304/406/308 329/405/307
f 327/411/312 302/412/313 307/413/314
f 293/415/316 292/418/319 322/416/317
f 292/418/319 289/468/321 318/419/303
f 320/420/320 323/367/281 295/369/283
f 289/421/321 301/446/331 325/386/296
f 315/422/322 314/450/369 378/423/323
f 312/424/324 329/405/307 324/374/286
f 312/424/324 315/422/322 326/408/310
f 310/425/325 323/367/281 320/420/320
f 311/426/326 320/420/320 317/383/293
f 310/425/325 308/451/305 319/428/328
f 313/402/304 324/374/286 319/429/328
f 285/430/329 293/415/316 321/417/318
f 318/419/303 308/451/305 310/425/325
f 316/431/330 321/417/318 311/426/326
f 321/417/318 322/416/317 310/425/325
f 327/411/312 315/422/322 312/424/324
f 325/386/296 328/388/298 312/424/324
f 330/414/315 314/450/369 315/422/322
f 355/432/301 307/452/314 302/433/313
f 302/433/313 305/453/297 301/435/331
f 288/436/289 300/434/302 301/435/331
f 291/438/288 288/454/289 289/439/321
f 290/441/292 291/438/288 292/440/319
f 284/443/290 290/441/292 293/442/316
f 336/368/332 367/428/337 371/367/333
f 345/370/335 335/372/339 336/371/332
f 336/373/332 348/375/353 372/374/336
f 340/376/338 337/378/352 335/377/339
f 333/379/340 339/381/343 346/380/341
f 339/381/343 340/376/338 345/382/335
f 343/384/344 368/420/366 365/383/345
f 376/388/347 354/387/377 350/446/348
f 331/389/342 346/391/341 343/390/344
f 346/391/341 345/370/335 344/392/334
f 355/394/301 306/466/309 347/393/350
f 349/395/351 347/393/350 335/396/339
f 335/398/339 347/400/350 348/399/353
f 366/401/354 357/403/374 362/402/355
f 347/400/350 352/404/358 353/449/356
f 348/375/353 353/406/356 377/405/357
f 306/407/309 356/467/311 352/404/358
f 356/409/311 378/423/323 374/408/359
f 351/412/360 354/387/377 376/388/347
f 374/408/359 377/405/357 353/406/356
f 330/414/315 307/413/314 351/412/360
f 370/416/362 341/418/365 342/415/363
f 366/419/354 338/468/367 341/418/365
f 344/369/334 371/367/333 368/420/366
f 373/386/349 350/446/348 338/421/367
f 363/422/368 374/408/359 378/423/323
f 372/374/336 377/405/357 361/424/370
f 361/424/370 377/405/357 374/408/359
f 368/420/366 371/367/333 359/425/371
f 365/383/345 368/420/366 360/426/372
f 359/425/371 371/367/333 367/428/337
f 367/429/337 372/374/336 362/402/355
f 369/417/364 342/415/363 334/430/375
f 370/416/362 359/425/371 357/451/374
f 364/431/376 358/427/373 360/426/372
f 369/417/364 360/426/372 359/425/371
f 361/424/370 363/422/368 375/411/361
f 373/386/349 362/402/355 361/424/370
f 363/422/368 314/450/369 330/414/315
f 355/432/301 349/434/351 351/433/360
f 349/434/351 350/435/348 354/453/377
f 350/435/348 349/434/351 337/436/352
f 340/438/338 341/440/365 338/439/367
f 339/441/343 342/442/363 341/440/365
f 333/443/340 334/444/375 342/442/363
